<?plantuml 1.2026.2?><svg xmlns="http://www.w3.org/2000/svg" xmlns:xlink="http://www.w3.org/1999/xlink" contentStyleType="text/css" data-diagram-type="CLASS" height="2460.2083px" preserveAspectRatio="none" style="width:1004px;height:2460px;background:#FFFFFF;" version="1.1" viewBox="0 0 1004 2460" width="1004.7917px" zoomAndPan="magnify"><title>Allpatek | Classes - Season Contracting</title><defs/><g><g class="title" data-source-line="9"><text fill="#000000" font-family="sans-serif" font-size="20.4167" font-weight="bold" lengthAdjust="spacing" textLength="384.6667" x="232.4062" y="35.7776">Allpatek | Classes - Season Contracting</text></g><!--class Proposal--><g class="entity" data-qualified-name="Proposal" data-source-line="11" id="ent0002"><rect fill="#F1F1F1" height="482.7197" rx="3.6458" ry="3.6458" style="stroke:#181818;stroke-width:0.7292;" width="319.0289" x="336.1458" y="283.8053"/><ellipse cx="446.2945" cy="307.1387" fill="#ADD1B2" rx="16.0417" ry="16.0417" style="stroke:#181818;stroke-width:1.4583;"/><path d="M450.0998,301.3053 Q450.3049,301.0319 450.5328,300.8952 Q450.7834,300.7585 451.0569,300.7585 Q451.5354,300.7585 451.8316,301.1003 Q452.1506,301.4193 452.1506,302.2168 L452.1506,304.0625 Q452.1506,304.86 451.8316,305.2018 Q451.5354,305.5208 451.0569,305.5208 Q450.6239,305.5208 450.3505,305.293 Q450.0771,305.0423 449.9631,304.3587 Q449.872,303.9258 449.6669,303.6751 Q449.2112,303.1966 448.4136,302.9004 Q447.6389,302.6042 446.8642,302.6042 Q445.8843,302.6042 445.0412,303.0371 Q444.2209,303.4701 443.5829,304.4271 Q442.9677,305.3841 442.9677,306.7057 L442.9677,308.1413 Q442.9677,309.7135 444.107,310.7845 Q445.2691,311.8327 447.2971,311.8327 Q448.5276,311.8327 449.3707,311.4909 Q449.8492,311.3086 450.4189,310.7389 Q450.7607,310.3971 450.9429,310.306 Q451.148,310.1921 451.3759,310.1921 Q451.8316,310.1921 452.1506,310.5339 Q452.4924,310.8529 452.4924,311.3086 Q452.4924,311.7643 452.0367,312.2656 Q451.3759,313.0176 450.3505,313.4505 Q448.9833,314.0202 447.3199,314.0202 Q445.383,314.0202 443.8108,313.2227 Q442.5575,312.5846 441.6689,311.1947 Q440.7802,309.8047 440.7802,308.1868 L440.7802,306.6829 Q440.7802,304.974 441.5777,303.5156 Q442.3752,302.0345 443.788,301.237 Q445.2008,300.4167 446.773,300.4167 Q447.7301,300.4167 448.5504,300.6445 Q449.3707,300.8724 450.0998,301.3053 Z " fill="#000000"/><text fill="#000000" font-family="sans-serif" font-size="21.875" lengthAdjust="spacing" textLength="86.3358" x="476.1903" y="316.0895">Proposal</text><line style="stroke:#181818;stroke-width:0.7292;" x1="337.6042" x2="653.7164" y1="330.472" y2="330.472"/><text fill="#000000" font-family="sans-serif" font-size="21.875" lengthAdjust="spacing" textLength="85.1288" x="344.8958" y="359.0135">-id: Long</text><text fill="#000000" font-family="sans-serif" font-size="21.875" lengthAdjust="spacing" textLength="121.6156" x="344.8958" y="386.5281">-plotId: Long</text><text fill="#000000" font-family="sans-serif" font-size="21.875" lengthAdjust="spacing" textLength="177.5314" x="344.8958" y="414.0428">-merchantId: Long</text><text fill="#000000" font-family="sans-serif" font-size="21.875" lengthAdjust="spacing" textLength="149.5468" x="344.8958" y="441.5574">-farmerId: Long</text><text fill="#000000" font-family="sans-serif" font-size="21.875" lengthAdjust="spacing" textLength="301.5289" x="344.8958" y="469.0721">-requestedVolume: BigDecimal</text><text fill="#000000" font-family="sans-serif" font-size="21.875" lengthAdjust="spacing" textLength="271.1197" x="344.8958" y="496.5867">-proposedPrice: BigDecimal</text><text fill="#000000" font-family="sans-serif" font-size="21.875" lengthAdjust="spacing" textLength="160.463" x="344.8958" y="524.1014">-currency: String</text><text fill="#000000" font-family="sans-serif" font-size="21.875" lengthAdjust="spacing" textLength="239.5248" x="344.8958" y="551.616">-deliveryDate: LocalDate</text><text fill="#000000" font-family="sans-serif" font-size="21.875" lengthAdjust="spacing" textLength="131.2714" x="344.8958" y="579.1307">-terms: String</text><text fill="#000000" font-family="sans-serif" font-size="21.875" lengthAdjust="spacing" textLength="176.2924" x="344.8958" y="606.6453">-expiresAt: Instant</text><text fill="#000000" font-family="sans-serif" font-size="21.875" lengthAdjust="spacing" textLength="226.152" x="344.8958" y="634.16">-status: ProposalStatus</text><line style="stroke:#181818;stroke-width:1.4583;" x1="337.6042" x2="653.7164" y1="644.7998" y2="644.7998"/><text fill="#000000" font-family="sans-serif" font-size="21.875" lengthAdjust="spacing" textLength="144.0567" x="344.8958" y="673.3413">+submit(): void</text><text fill="#000000" font-family="sans-serif" font-size="21.875" lengthAdjust="spacing" textLength="276.5778" x="344.8958" y="700.8559">+counter(terms: String): void</text><text fill="#000000" font-family="sans-serif" font-size="21.875" lengthAdjust="spacing" textLength="144.0781" x="344.8958" y="728.3706">+accept(): void</text><text fill="#000000" font-family="sans-serif" font-size="21.875" lengthAdjust="spacing" textLength="139.2075" x="344.8958" y="755.8852">+expire(): void</text></g><!--class Reservation--><g class="entity" data-qualified-name="Reservation" data-source-line="29" id="ent0003"><rect fill="#F1F1F1" height="345.1465" rx="3.6458" ry="3.6458" style="stroke:#181818;stroke-width:0.7292;" width="274.0399" x="8.75" y="851.097"/><ellipse cx="81.2102" cy="874.4303" fill="#ADD1B2" rx="16.0417" ry="16.0417" style="stroke:#181818;stroke-width:1.4583;"/><path d="M85.0156,868.597 Q85.2206,868.3236 85.4485,868.1868 Q85.6992,868.0501 85.9726,868.0501 Q86.4511,868.0501 86.7473,868.3919 Q87.0663,868.7109 87.0663,869.5085 L87.0663,871.3542 Q87.0663,872.1517 86.7473,872.4935 Q86.4511,872.8125 85.9726,872.8125 Q85.5397,872.8125 85.2662,872.5846 Q84.9928,872.334 84.8788,871.6504 Q84.7877,871.2174 84.5826,870.9668 Q84.1269,870.4883 83.3294,870.1921 Q82.5546,869.8958 81.7799,869.8958 Q80.8001,869.8958 79.957,870.3288 Q79.1367,870.7617 78.4986,871.7188 Q77.8834,872.6758 77.8834,873.9974 L77.8834,875.4329 Q77.8834,877.0052 79.0227,878.0762 Q80.1848,879.1243 82.2128,879.1243 Q83.4433,879.1243 84.2864,878.7826 Q84.7649,878.6003 85.3346,878.0306 Q85.6764,877.6888 85.8587,877.5977 Q86.0637,877.4837 86.2916,877.4837 Q86.7473,877.4837 87.0663,877.8255 Q87.4081,878.1445 87.4081,878.6003 Q87.4081,879.056 86.9524,879.5573 Q86.2916,880.3092 85.2662,880.7422 Q83.899,881.3118 82.2356,881.3118 Q80.2988,881.3118 78.7265,880.5143 Q77.4732,879.8763 76.5846,878.4863 Q75.6959,877.0964 75.6959,875.4785 L75.6959,873.9746 Q75.6959,872.2656 76.4934,870.8073 Q77.291,869.3262 78.7037,868.5286 Q80.1165,867.7083 81.6887,867.7083 Q82.6458,867.7083 83.4661,867.9362 Q84.2864,868.1641 85.0156,868.597 Z " fill="#000000"/><text fill="#000000" font-family="sans-serif" font-size="21.875" lengthAdjust="spacing" textLength="116.7236" x="111.1061" y="883.3811">Reservation</text><line style="stroke:#181818;stroke-width:0.7292;" x1="10.2083" x2="281.3316" y1="897.7637" y2="897.7637"/><text fill="#000000" font-family="sans-serif" font-size="21.875" lengthAdjust="spacing" textLength="85.1288" x="17.5" y="926.3051">-id: Long</text><text fill="#000000" font-family="sans-serif" font-size="21.875" lengthAdjust="spacing" textLength="121.6156" x="17.5" y="953.8198">-plotId: Long</text><text fill="#000000" font-family="sans-serif" font-size="21.875" lengthAdjust="spacing" textLength="170.2576" x="17.5" y="981.3344">-proposalId: Long</text><text fill="#000000" font-family="sans-serif" font-size="21.875" lengthAdjust="spacing" textLength="177.5314" x="17.5" y="1008.8491">-merchantId: Long</text><text fill="#000000" font-family="sans-serif" font-size="21.875" lengthAdjust="spacing" textLength="176.2924" x="17.5" y="1036.3637">-expiresAt: Instant</text><text fill="#000000" font-family="sans-serif" font-size="21.875" lengthAdjust="spacing" textLength="256.5399" x="17.5" y="1063.8784">-status: ReservationStatus</text><line style="stroke:#181818;stroke-width:1.4583;" x1="10.2083" x2="281.3316" y1="1074.5182" y2="1074.5182"/><text fill="#000000" font-family="sans-serif" font-size="21.875" lengthAdjust="spacing" textLength="120.9854" x="17.5" y="1103.0597">+hold(): void</text><text fill="#000000" font-family="sans-serif" font-size="21.875" lengthAdjust="spacing" textLength="151.3412" x="17.5" y="1130.5743">+confirm(): void</text><text fill="#000000" font-family="sans-serif" font-size="21.875" lengthAdjust="spacing" textLength="151.3733" x="17.5" y="1158.089">+release(): void</text><text fill="#000000" font-family="sans-serif" font-size="21.875" lengthAdjust="spacing" textLength="139.2075" x="17.5" y="1185.6036">+expire(): void</text></g><!--class Contract--><g class="entity" data-qualified-name="Contract" data-source-line="42" id="ent0004"><rect fill="#F1F1F1" height="592.7783" rx="3.6458" ry="3.6458" style="stroke:#181818;stroke-width:0.7292;" width="305.6668" x="403.9583" y="1281.3053"/><ellipse cx="509.2578" cy="1304.6387" fill="#ADD1B2" rx="16.0417" ry="16.0417" style="stroke:#181818;stroke-width:1.4583;"/><path d="M513.0631,1298.8053 Q513.2682,1298.5319 513.496,1298.3952 Q513.7467,1298.2585 514.0201,1298.2585 Q514.4986,1298.2585 514.7949,1298.6003 Q515.1139,1298.9193 515.1139,1299.7168 L515.1139,1301.5625 Q515.1139,1302.36 514.7949,1302.7018 Q514.4986,1303.0208 514.0201,1303.0208 Q513.5872,1303.0208 513.3138,1302.793 Q513.0403,1302.5423 512.9264,1301.8587 Q512.8352,1301.4258 512.6302,1301.1751 Q512.1744,1300.6966 511.3769,1300.4004 Q510.6022,1300.1042 509.8274,1300.1042 Q508.8476,1300.1042 508.0045,1300.5371 Q507.1842,1300.9701 506.5462,1301.9271 Q505.9309,1302.8841 505.9309,1304.2057 L505.9309,1305.6413 Q505.9309,1307.2135 507.0703,1308.2845 Q508.2324,1309.3327 510.2604,1309.3327 Q511.4908,1309.3327 512.3339,1308.9909 Q512.8124,1308.8086 513.3821,1308.2389 Q513.7239,1307.8971 513.9062,1307.806 Q514.1113,1307.6921 514.3391,1307.6921 Q514.7949,1307.6921 515.1139,1308.0339 Q515.4557,1308.3529 515.4557,1308.8086 Q515.4557,1309.2643 514.9999,1309.7656 Q514.3391,1310.5176 513.3138,1310.9505 Q511.9466,1311.5202 510.2832,1311.5202 Q508.3463,1311.5202 506.774,1310.7227 Q505.5208,1310.0846 504.6321,1308.6947 Q503.7434,1307.3047 503.7434,1305.6868 L503.7434,1304.1829 Q503.7434,1302.474 504.541,1301.0156 Q505.3385,1299.5345 506.7513,1298.737 Q508.164,1297.9167 509.7363,1297.9167 Q510.6933,1297.9167 511.5136,1298.1445 Q512.3339,1298.3724 513.0631,1298.8053 Z " fill="#000000"/><text fill="#000000" font-family="sans-serif" font-size="21.875" lengthAdjust="spacing" textLength="82.6721" x="539.1536" y="1313.5895">Contract</text><line style="stroke:#181818;stroke-width:0.7292;" x1="405.4167" x2="708.1668" y1="1327.972" y2="1327.972"/><text fill="#000000" font-family="sans-serif" font-size="21.875" lengthAdjust="spacing" textLength="85.1288" x="412.7083" y="1356.5135">-id: Long</text><text fill="#000000" font-family="sans-serif" font-size="21.875" lengthAdjust="spacing" textLength="121.6156" x="412.7083" y="1384.0281">-plotId: Long</text><text fill="#000000" font-family="sans-serif" font-size="21.875" lengthAdjust="spacing" textLength="170.2576" x="412.7083" y="1411.5428">-proposalId: Long</text><text fill="#000000" font-family="sans-serif" font-size="21.875" lengthAdjust="spacing" textLength="194.5572" x="412.7083" y="1439.0574">-reservationId: Long</text><text fill="#000000" font-family="sans-serif" font-size="21.875" lengthAdjust="spacing" textLength="177.5314" x="412.7083" y="1466.5721">-merchantId: Long</text><text fill="#000000" font-family="sans-serif" font-size="21.875" lengthAdjust="spacing" textLength="149.5468" x="412.7083" y="1494.0867">-farmerId: Long</text><text fill="#000000" font-family="sans-serif" font-size="21.875" lengthAdjust="spacing" textLength="206.691" x="412.7083" y="1521.6014">-startDate: LocalDate</text><text fill="#000000" font-family="sans-serif" font-size="21.875" lengthAdjust="spacing" textLength="200.6454" x="412.7083" y="1549.116">-endDate: LocalDate</text><text fill="#000000" font-family="sans-serif" font-size="21.875" lengthAdjust="spacing" textLength="246.7987" x="412.7083" y="1576.6307">-totalAmount: BigDecimal</text><text fill="#000000" font-family="sans-serif" font-size="21.875" lengthAdjust="spacing" textLength="160.463" x="412.7083" y="1604.1453">-currency: String</text><text fill="#000000" font-family="sans-serif" font-size="21.875" lengthAdjust="spacing" textLength="131.2714" x="412.7083" y="1631.66">-terms: String</text><text fill="#000000" font-family="sans-serif" font-size="21.875" lengthAdjust="spacing" textLength="288.1668" x="412.7083" y="1659.1746">-merchantAcceptedAt: Instant</text><text fill="#000000" font-family="sans-serif" font-size="21.875" lengthAdjust="spacing" textLength="260.1822" x="412.7083" y="1686.6892">-farmerAcceptedAt: Instant</text><text fill="#000000" font-family="sans-serif" font-size="21.875" lengthAdjust="spacing" textLength="222.4884" x="412.7083" y="1714.2039">-status: ContractStatus</text><text fill="#000000" font-family="sans-serif" font-size="21.875" lengthAdjust="spacing" textLength="210.3439" x="412.7083" y="1741.7185">-documentKey: String</text><text fill="#000000" font-family="sans-serif" font-size="21.875" lengthAdjust="spacing" textLength="246.8414" x="412.7083" y="1769.2332">-documentSentAt: Instant</text><line style="stroke:#181818;stroke-width:1.4583;" x1="405.4167" x2="708.1668" y1="1779.873" y2="1779.873"/><text fill="#000000" font-family="sans-serif" font-size="21.875" lengthAdjust="spacing" textLength="271.7712" x="412.7083" y="1808.4145">+accept(partyId: Long): void</text><text fill="#000000" font-family="sans-serif" font-size="21.875" lengthAdjust="spacing" textLength="155.0156" x="412.7083" y="1835.9292">+activate(): void</text><text fill="#000000" font-family="sans-serif" font-size="21.875" lengthAdjust="spacing" textLength="168.3884" x="412.7083" y="1863.4438">+complete(): void</text></g><!--class Milestone--><g class="entity" data-qualified-name="Milestone" data-source-line="64" id="ent0005"><rect fill="#F1F1F1" height="400.1758" rx="3.6458" ry="3.6458" style="stroke:#181818;stroke-width:0.7292;" width="286.8039" x="258.8542" y="1957.972"/><ellipse cx="349.248" cy="1981.3053" fill="#ADD1B2" rx="16.0417" ry="16.0417" style="stroke:#181818;stroke-width:1.4583;"/><path d="M353.0534,1975.472 Q353.2585,1975.1986 353.4863,1975.0618 Q353.737,1974.9251 354.0104,1974.9251 Q354.4889,1974.9251 354.7852,1975.2669 Q355.1042,1975.5859 355.1042,1976.3835 L355.1042,1978.2292 Q355.1042,1979.0267 354.7852,1979.3685 Q354.4889,1979.6875 354.0104,1979.6875 Q353.5775,1979.6875 353.304,1979.4596 Q353.0306,1979.209 352.9167,1978.5254 Q352.8255,1978.0924 352.6204,1977.8418 Q352.1647,1977.3633 351.3672,1977.0671 Q350.5924,1976.7708 349.8177,1976.7708 Q348.8379,1976.7708 347.9948,1977.2038 Q347.1745,1977.6367 346.5365,1978.5938 Q345.9212,1979.5508 345.9212,1980.8724 L345.9212,1982.3079 Q345.9212,1983.8802 347.0605,1984.9512 Q348.2227,1985.9993 350.2507,1985.9993 Q351.4811,1985.9993 352.3242,1985.6576 Q352.8027,1985.4753 353.3724,1984.9056 Q353.7142,1984.5638 353.8965,1984.4727 Q354.1016,1984.3587 354.3294,1984.3587 Q354.7852,1984.3587 355.1042,1984.7005 Q355.446,1985.0195 355.446,1985.4753 Q355.446,1985.931 354.9902,1986.4323 Q354.3294,1987.1842 353.304,1987.6172 Q351.9368,1988.1868 350.2734,1988.1868 Q348.3366,1988.1868 346.7643,1987.3893 Q345.5111,1986.7513 344.6224,1985.3613 Q343.7337,1983.9714 343.7337,1982.3535 L343.7337,1980.8496 Q343.7337,1979.1406 344.5313,1977.6823 Q345.3288,1976.2012 346.7415,1975.4036 Q348.1543,1974.5833 349.7266,1974.5833 Q350.6836,1974.5833 351.5039,1974.8112 Q352.3242,1975.0391 353.0534,1975.472 Z " fill="#000000"/><text fill="#000000" font-family="sans-serif" font-size="21.875" lengthAdjust="spacing" textLength="93.6203" x="379.1439" y="1990.2561">Milestone</text><line style="stroke:#181818;stroke-width:0.7292;" x1="260.3125" x2="544.1997" y1="2004.6387" y2="2004.6387"/><text fill="#000000" font-family="sans-serif" font-size="21.875" lengthAdjust="spacing" textLength="85.1288" x="267.6042" y="2033.1801">-id: Long</text><text fill="#000000" font-family="sans-serif" font-size="21.875" lengthAdjust="spacing" textLength="164.1586" x="267.6042" y="2060.6948">-contractId: Long</text><text fill="#000000" font-family="sans-serif" font-size="21.875" lengthAdjust="spacing" textLength="182.4127" x="267.6042" y="2088.2094">-sequence: Integer</text><text fill="#000000" font-family="sans-serif" font-size="21.875" lengthAdjust="spacing" textLength="131.3034" x="267.6042" y="2115.7241">-name: String</text><text fill="#000000" font-family="sans-serif" font-size="21.875" lengthAdjust="spacing" textLength="142.2195" x="267.6042" y="2143.2387">-criteria: String</text><text fill="#000000" font-family="sans-serif" font-size="21.875" lengthAdjust="spacing" textLength="203.0273" x="267.6042" y="2170.7534">-amount: BigDecimal</text><text fill="#000000" font-family="sans-serif" font-size="21.875" lengthAdjust="spacing" textLength="134.9457" x="267.6042" y="2198.268">-status: String</text><text fill="#000000" font-family="sans-serif" font-size="21.875" lengthAdjust="spacing" textLength="193.3182" x="267.6042" y="2225.7827">-reviewedAt: Instant</text><text fill="#000000" font-family="sans-serif" font-size="21.875" lengthAdjust="spacing" textLength="186.0016" x="267.6042" y="2253.2973">-reviewNote: String</text><line style="stroke:#181818;stroke-width:1.4583;" x1="260.3125" x2="544.1997" y1="2263.9372" y2="2263.9372"/><text fill="#000000" font-family="sans-serif" font-size="21.875" lengthAdjust="spacing" textLength="144.0567" x="267.6042" y="2292.4786">+submit(): void</text><text fill="#000000" font-family="sans-serif" font-size="21.875" lengthAdjust="spacing" textLength="158.6792" x="267.6042" y="2319.9933">+approve(): void</text><text fill="#000000" font-family="sans-serif" font-size="21.875" lengthAdjust="spacing" textLength="269.3039" x="267.6042" y="2347.5079">+reject(reason: String): void</text></g><!--class ProposalStatus--><g class="entity" data-qualified-name="ProposalStatus" data-source-line="79" id="ent0006"><rect fill="#F1F1F1" height="207.5732" rx="3.6458" ry="3.6458" style="stroke:#181818;stroke-width:0.7292;" width="195.0172" x="309.1667" y="920.3678"/><ellipse cx="331.0417" cy="943.7012" fill="#EB937F" rx="16.0417" ry="16.0417" style="stroke:#181818;stroke-width:1.4583;"/><path d="M330.2441,944.1341 L330.2441,947.347 L335.8496,947.347 L335.8496,946.1621 Q335.8496,945.3646 336.1458,945.0456 Q336.4421,944.7038 336.9434,944.7038 Q337.4219,944.7038 337.7181,945.0456 Q338.0371,945.3646 338.0371,946.1621 L338.0371,949.5345 L327.7148,949.5345 Q326.9401,949.5345 326.5983,949.2383 Q326.2565,948.9193 326.2565,948.4408 Q326.2565,947.9622 326.5983,947.666 Q326.9401,947.347 327.7148,947.347 L328.0566,947.347 L328.0566,938.7793 L327.7148,938.7793 Q326.9401,938.7793 326.5983,938.4831 Q326.2565,938.1641 326.2565,937.6855 Q326.2565,937.1842 326.5983,936.888 Q326.9401,936.569 327.7148,936.569 L337.5586,936.5918 L337.5586,939.9186 Q337.5586,940.6934 337.2396,941.0352 Q336.9434,941.377 336.4648,941.377 Q335.9635,941.377 335.6445,941.0579 Q335.3483,940.7161 335.3483,939.9186 L335.3483,938.7793 L330.2441,938.7793 L330.2441,941.9466 L332.181,941.9466 Q332.181,941.0807 332.3405,940.8301 Q332.6595,940.306 333.2747,940.306 Q333.7533,940.306 334.0495,940.6478 Q334.3685,940.9896 334.3685,941.7871 L334.3685,944.2936 Q334.3685,945.0228 334.1862,945.2507 Q333.8444,945.7747 333.2747,945.7747 Q332.6595,945.7747 332.3405,945.2507 Q332.181,945 332.181,944.1341 L330.2441,944.1341 Z " fill="#000000"/><text fill="#000000" font-family="sans-serif" font-size="21.875" lengthAdjust="spacing" textLength="148.3505" x="351.4583" y="952.652">ProposalStatus</text><line style="stroke:#181818;stroke-width:0.7292;" x1="310.625" x2="502.7255" y1="967.0345" y2="967.0345"/><text fill="#000000" font-family="sans-serif" font-size="21.875" lengthAdjust="spacing" textLength="99.6658" x="317.9167" y="995.576">PENDING</text><text fill="#000000" font-family="sans-serif" font-size="21.875" lengthAdjust="spacing" textLength="138.5452" x="317.9167" y="1023.0906">COUNTERED</text><text fill="#000000" font-family="sans-serif" font-size="21.875" lengthAdjust="spacing" textLength="119.1162" x="317.9167" y="1050.6053">ACCEPTED</text><text fill="#000000" font-family="sans-serif" font-size="21.875" lengthAdjust="spacing" textLength="115.4633" x="317.9167" y="1078.1199">REJECTED</text><text fill="#000000" font-family="sans-serif" font-size="21.875" lengthAdjust="spacing" textLength="96.0342" x="317.9167" y="1105.6346">EXPIRED</text><line style="stroke:#181818;stroke-width:0.7292;" x1="310.625" x2="502.7255" y1="1116.2744" y2="1116.2744"/></g><!--class ReservationStatus--><g class="entity" data-qualified-name="ReservationStatus" data-source-line="86" id="ent0007"><rect fill="#F1F1F1" height="180.0586" rx="3.6458" ry="3.6458" style="stroke:#181818;stroke-width:0.7292;" width="235.0751" x="28.4375" y="1487.6595"/><ellipse cx="54.664" cy="1510.9928" fill="#EB937F" rx="16.0417" ry="16.0417" style="stroke:#181818;stroke-width:1.4583;"/><path d="M53.8665,1511.4258 L53.8665,1514.6387 L59.4719,1514.6387 L59.4719,1513.4538 Q59.4719,1512.6563 59.7682,1512.3372 Q60.0644,1511.9954 60.5657,1511.9954 Q61.0442,1511.9954 61.3404,1512.3372 Q61.6594,1512.6563 61.6594,1513.4538 L61.6594,1516.8262 L51.3372,1516.8262 Q50.5624,1516.8262 50.2206,1516.5299 Q49.8788,1516.2109 49.8788,1515.7324 Q49.8788,1515.2539 50.2206,1514.9577 Q50.5624,1514.6387 51.3372,1514.6387 L51.679,1514.6387 L51.679,1506.071 L51.3372,1506.071 Q50.5624,1506.071 50.2206,1505.7747 Q49.8788,1505.4557 49.8788,1504.9772 Q49.8788,1504.4759 50.2206,1504.1797 Q50.5624,1503.8607 51.3372,1503.8607 L61.1809,1503.8835 L61.1809,1507.2103 Q61.1809,1507.985 60.8619,1508.3268 Q60.5657,1508.6686 60.0872,1508.6686 Q59.5859,1508.6686 59.2669,1508.3496 Q58.9706,1508.0078 58.9706,1507.2103 L58.9706,1506.071 L53.8665,1506.071 L53.8665,1509.2383 L55.8033,1509.2383 Q55.8033,1508.3724 55.9628,1508.1217 Q56.2818,1507.5977 56.8971,1507.5977 Q57.3756,1507.5977 57.6718,1507.9395 Q57.9908,1508.2813 57.9908,1509.0788 L57.9908,1511.5853 Q57.9908,1512.3145 57.8085,1512.5423 Q57.4667,1513.0664 56.8971,1513.0664 Q56.2818,1513.0664 55.9628,1512.5423 Q55.8033,1512.2917 55.8033,1511.4258 L53.8665,1511.4258 Z " fill="#000000"/><text fill="#000000" font-family="sans-serif" font-size="21.875" lengthAdjust="spacing" textLength="178.7384" x="76.0477" y="1519.9436">ReservationStatus</text><line style="stroke:#181818;stroke-width:0.7292;" x1="29.8958" x2="262.0542" y1="1534.3262" y2="1534.3262"/><text fill="#000000" font-family="sans-serif" font-size="21.875" lengthAdjust="spacing" textLength="217.5751" x="37.1875" y="1562.8676">PENDING_PAYMENT</text><text fill="#000000" font-family="sans-serif" font-size="21.875" lengthAdjust="spacing" textLength="132.457" x="37.1875" y="1590.3823">CONFIRMED</text><text fill="#000000" font-family="sans-serif" font-size="21.875" lengthAdjust="spacing" textLength="116.713" x="37.1875" y="1617.8969">RELEASED</text><text fill="#000000" font-family="sans-serif" font-size="21.875" lengthAdjust="spacing" textLength="96.0342" x="37.1875" y="1645.4116">EXPIRED</text><line style="stroke:#181818;stroke-width:0.7292;" x1="29.8958" x2="262.0542" y1="1656.0514" y2="1656.0514"/></g><!--class ContractStatus--><g class="entity" data-qualified-name="ContractStatus" data-source-line="92" id="ent0008"><rect fill="#F1F1F1" height="207.5732" rx="3.6458" ry="3.6458" style="stroke:#181818;stroke-width:0.7292;" width="278.8358" x="572.3958" y="2054.222"/><ellipse cx="633.6378" cy="2077.5553" fill="#EB937F" rx="16.0417" ry="16.0417" style="stroke:#181818;stroke-width:1.4583;"/><path d="M632.8403,2077.9883 L632.8403,2081.2012 L638.4458,2081.2012 L638.4458,2080.0163 Q638.4458,2079.2188 638.742,2078.8997 Q639.0382,2078.5579 639.5395,2078.5579 Q640.018,2078.5579 640.3143,2078.8997 Q640.6333,2079.2188 640.6333,2080.0163 L640.6333,2083.3887 L630.311,2083.3887 Q629.5363,2083.3887 629.1945,2083.0924 Q628.8527,2082.7734 628.8527,2082.2949 Q628.8527,2081.8164 629.1945,2081.5202 Q629.5363,2081.2012 630.311,2081.2012 L630.6528,2081.2012 L630.6528,2072.6335 L630.311,2072.6335 Q629.5363,2072.6335 629.1945,2072.3372 Q628.8527,2072.0182 628.8527,2071.5397 Q628.8527,2071.0384 629.1945,2070.7422 Q629.5363,2070.4232 630.311,2070.4232 L640.1547,2070.446 L640.1547,2073.7728 Q640.1547,2074.5475 639.8357,2074.8893 Q639.5395,2075.2311 639.061,2075.2311 Q638.5597,2075.2311 638.2407,2074.9121 Q637.9445,2074.5703 637.9445,2073.7728 L637.9445,2072.6335 L632.8403,2072.6335 L632.8403,2075.8008 L634.7771,2075.8008 Q634.7771,2074.9349 634.9367,2074.6842 Q635.2557,2074.1602 635.8709,2074.1602 Q636.3494,2074.1602 636.6456,2074.502 Q636.9646,2074.8438 636.9646,2075.6413 L636.9646,2078.1478 Q636.9646,2078.877 636.7824,2079.1048 Q636.4406,2079.6289 635.8709,2079.6289 Q635.2557,2079.6289 634.9367,2079.1048 Q634.7771,2078.8542 634.7771,2077.9883 L632.8403,2077.9883 Z " fill="#000000"/><text fill="#000000" font-family="sans-serif" font-size="21.875" lengthAdjust="spacing" textLength="144.6869" x="662.8027" y="2086.5061">ContractStatus</text><line style="stroke:#181818;stroke-width:0.7292;" x1="573.8542" x2="849.7733" y1="2100.8887" y2="2100.8887"/><text fill="#000000" font-family="sans-serif" font-size="21.875" lengthAdjust="spacing" textLength="261.3358" x="581.1458" y="2129.4301">PENDING_ACCEPTANCE</text><text fill="#000000" font-family="sans-serif" font-size="21.875" lengthAdjust="spacing" textLength="217.5751" x="581.1458" y="2156.9448">PENDING_PAYMENT</text><text fill="#000000" font-family="sans-serif" font-size="21.875" lengthAdjust="spacing" textLength="79.0085" x="581.1458" y="2184.4594">ACTIVE</text><text fill="#000000" font-family="sans-serif" font-size="21.875" lengthAdjust="spacing" textLength="136.1313" x="581.1458" y="2211.9741">COMPLETED</text><text fill="#000000" font-family="sans-serif" font-size="21.875" lengthAdjust="spacing" textLength="131.2927" x="581.1458" y="2239.4887">CANCELLED</text><line style="stroke:#181818;stroke-width:0.7292;" x1="573.8542" x2="849.7733" y1="2250.1286" y2="2250.1286"/></g><!--class ContractRepository--><g class="entity" data-qualified-name="ContractRepository" data-source-line="102" id="ent0012"><rect fill="#F1F1F1" height="125.0293" rx="3.6458" ry="3.6458" style="stroke:#181818;stroke-width:0.7292;" width="403.5809" x="285.1042" y="73.8053"/><ellipse cx="387.0818" cy="97.1387" fill="#B4A7E5" rx="16.0417" ry="16.0417" style="stroke:#181818;stroke-width:1.4583;"/><path d="M388.9047,92.2168 L388.9047,100.7845 L391.115,100.7845 Q391.9125,100.7845 392.2315,101.1035 Q392.5733,101.3997 392.5733,101.8783 Q392.5733,102.3568 392.2315,102.6758 Q391.9125,102.972 391.115,102.972 L384.5069,102.972 Q383.7094,102.972 383.3676,102.6758 Q383.0486,102.3568 383.0486,101.8783 Q383.0486,101.3997 383.3676,101.1035 Q383.7094,100.7845 384.5069,100.7845 L386.7172,100.7845 L386.7172,92.2168 L384.5069,92.2168 Q383.7094,92.2168 383.3676,91.9206 Q383.0486,91.6016 383.0486,91.123 Q383.0486,90.6217 383.3676,90.3255 Q383.7094,90.0065 384.5069,90.0065 L391.115,90.0293 Q391.9125,90.0293 392.2315,90.3255 Q392.5733,90.6217 392.5733,91.123 Q392.5733,91.6016 392.2315,91.9206 Q391.9125,92.2168 391.115,92.2168 L388.9047,92.2168 Z " fill="#000000"/><text fill="#000000" font-family="sans-serif" font-size="21.875" font-style="italic" lengthAdjust="spacing" textLength="187.2299" x="416.9776" y="106.0895">ContractRepository</text><line style="stroke:#181818;stroke-width:0.7292;" x1="286.5625" x2="687.2268" y1="120.472" y2="120.472"/><line style="stroke:#181818;stroke-width:0.7292;" x1="286.5625" x2="687.2268" y1="132.1387" y2="132.1387"/><text fill="#000000" font-family="sans-serif" font-size="21.875" lengthAdjust="spacing" textLength="386.0809" x="293.8542" y="160.6801">+findById(id: Long): Optional&lt;Contract&gt;</text><text fill="#000000" font-family="sans-serif" font-size="21.875" lengthAdjust="spacing" textLength="315.4892" x="293.8542" y="188.1948">+save(entity: Contract): Contract</text></g><g class="link" data-entity-1="ent0002" data-entity-2="ent0006" data-link-type="dependency" id="lnk9"><polygon fill="#476050" points="425.2312,920.1382,433.2906,908.2496,426.5188,912.9611,421.8073,906.1894,425.2312,920.1382" style="stroke:#476050;stroke-width:1.4583;"/><path d="M452.7874,766.5462 C443.0748,820.6816 434.8163,866.7129 426.7763,911.5257" fill="none" style="stroke:#476050;stroke-width:1.4583;stroke-dasharray:10.2083,10.2083;"/><text fill="#000000" font-family="sans-serif" font-size="21.875" lengthAdjust="spacing" textLength="46.2067" x="449.1667" y="818.3885">uses</text></g><g class="link" data-entity-1="ent0003" data-entity-2="ent0007" data-link-type="dependency" id="lnk10"><polygon fill="#476050" points="145.8333,1487.3371,151.6667,1474.2121,145.8333,1480.0454,140,1474.2121,145.8333,1487.3371" style="stroke:#476050;stroke-width:1.4583;"/><path d="M145.8333,1196.9148 C145.8333,1293.1615 145.8333,1400.4728 145.8333,1478.5871" fill="none" style="stroke:#476050;stroke-width:1.4583;stroke-dasharray:10.2083,10.2083;"/><text fill="#000000" font-family="sans-serif" font-size="21.875" lengthAdjust="spacing" textLength="46.2067" x="148.75" y="1248.5968">uses</text></g><g class="link" data-entity-1="ent0004" data-entity-2="ent0008" data-link-type="dependency" id="lnk11"><polygon fill="#476050" points="684.1754,2053.602,686.4165,2039.415,682.2899,2046.5583,675.1466,2042.4317,684.1754,2053.602" style="stroke:#476050;stroke-width:1.4583;"/><path d="M635.96,1873.4766 C653.3032,1938.2681 668.2774,1994.2095 681.9129,2045.1496" fill="none" style="stroke:#476050;stroke-width:1.4583;stroke-dasharray:10.2083,10.2083;"/><text fill="#000000" font-family="sans-serif" font-size="21.875" lengthAdjust="spacing" textLength="46.2067" x="650.4167" y="1925.2635">uses</text></g><g class="link" data-entity-1="ent0012" data-entity-2="ent0002" data-link-type="dependency" id="lnk13"><polygon fill="#476050" points="489.0874,283.5999,494.6303,270.3496,488.9268,276.31,482.9665,270.6065,489.0874,283.5999" style="stroke:#476050;stroke-width:1.4583;"/><path d="M487.6538,199.4247 C487.8754,218.0944 488.1677,238.6651 488.5417,257.5553 C488.7109,266.105 488.7011,266.0609 488.8947,274.852" fill="none" style="stroke:#476050;stroke-width:1.4583;stroke-dasharray:10.2083,10.2083;"/><text fill="#000000" font-family="sans-serif" font-size="21.875" lengthAdjust="spacing" textLength="192.1005" x="491.4583" y="251.0968">stores and retrieves</text></g><g class="link" data-entity-1="ent0012" data-entity-2="ent0003" data-link-type="dependency" id="lnk14"><polygon fill="#476050" points="88.3771,851.0059,90.6607,836.8257,86.5128,843.9566,79.3819,839.8087,88.3771,851.0059" style="stroke:#476050;stroke-width:1.4583;"/><path d="M284.8353,173.7037 C223.2944,195.0791 162.2526,229.2343 125.4167,283.8053 C12.8223,450.6094 43.6516,681.8944 86.1399,842.5468" fill="none" style="stroke:#476050;stroke-width:1.4583;stroke-dasharray:10.2083,10.2083;"/><text fill="#000000" font-family="sans-serif" font-size="21.875" lengthAdjust="spacing" textLength="192.1005" x="128.3333" y="534.7426">stores and retrieves</text></g><g class="link" data-entity-1="ent0012" data-entity-2="ent0004" data-link-type="dependency" id="lnk15"><polygon fill="#476050" points="684.7393,1281.096,694.6697,1270.7191,687.2066,1274.2345,683.6913,1266.7714,684.7393,1281.096" style="stroke:#476050;stroke-width:1.4583;"/><path d="M662.6323,199.2833 C671.3097,207.0083 679.0459,215.6982 685.4167,225.472 C891.0139,540.8933 792.7243,980.7948 687.7001,1272.8622" fill="none" style="stroke:#476050;stroke-width:1.4583;stroke-dasharray:10.2083,10.2083;"/><text fill="#000000" font-family="sans-serif" font-size="21.875" lengthAdjust="spacing" textLength="192.1005" x="800.625" y="818.3885">stores and retrieves</text></g><g class="link" data-entity-1="ent0002" data-entity-2="ent0003" data-link-type="dependency" id="lnk16"><polygon fill="#476050" points="266.8823,850.9652,279.2169,843.6065,271.0873,845.0081,269.6856,836.8785,266.8823,850.9652" style="stroke:#476050;stroke-width:1.4583;"/><path d="M335.6856,753.4938 C312.5557,786.2611 294.1233,812.3737 271.9283,843.8167" fill="none" style="stroke:#476050;stroke-width:1.4583;"/><text fill="#000000" font-family="sans-serif" font-size="21.875" lengthAdjust="spacing" textLength="102.1545" x="303.3333" y="818.3885">proposalId</text><text fill="#000000" font-family="sans-serif" font-size="21.875" lengthAdjust="spacing" textLength="32.8339" x="233.3406" y="845.965">0..*</text><text fill="#000000" font-family="sans-serif" font-size="21.875" lengthAdjust="spacing" textLength="12.1658" x="322.5606" y="748.4936">1</text></g><g class="link" data-entity-1="ent0002" data-entity-2="ent0004" data-link-type="dependency" id="lnk17"><polygon fill="#476050" points="541.9332,1280.9404,547.0627,1267.5247,541.5467,1273.659,535.4124,1268.143,541.9332,1280.9404" style="stroke:#476050;stroke-width:1.4583;"/><path d="M512.3713,766.6985 C514.2261,795.1412 516.0446,823.764 517.7083,851.097 C526.3121,992.4475 534.4858,1140.6247 541.4695,1272.2027" fill="none" style="stroke:#476050;stroke-width:1.4583;"/><text fill="#000000" font-family="sans-serif" font-size="21.875" lengthAdjust="spacing" textLength="102.1545" x="541.0417" y="1033.4926">proposalId</text><text fill="#000000" font-family="sans-serif" font-size="21.875" lengthAdjust="spacing" textLength="36.4868" x="504.0165" y="1275.9402">0..1</text><text fill="#000000" font-family="sans-serif" font-size="21.875" lengthAdjust="spacing" textLength="12.1658" x="499.2463" y="790.865">1</text></g><g class="link" data-entity-1="ent0003" data-entity-2="ent0004" data-link-type="dependency" id="lnk18"><polygon fill="#476050" points="403.8425,1370.7525,400.6609,1356.7464,399.4787,1364.9108,391.3143,1363.7285,403.8425,1370.7525" style="stroke:#476050;stroke-width:1.4583;"/><path d="M273.9824,1196.9148 C315.1175,1251.9805 355.8613,1306.5222 398.6059,1363.7425" fill="none" style="stroke:#476050;stroke-width:1.4583;"/><text fill="#000000" font-family="sans-serif" font-size="21.875" lengthAdjust="spacing" textLength="126.4542" x="317.9167" y="1248.5968">reservationId</text><text fill="#000000" font-family="sans-serif" font-size="21.875" lengthAdjust="spacing" textLength="36.4868" x="365.9259" y="1365.7523">0..1</text><text fill="#000000" font-family="sans-serif" font-size="21.875" lengthAdjust="spacing" textLength="12.1658" x="260.8574" y="1221.0813">1</text></g><g class="link" data-entity-1="ent0004" data-entity-2="ent0005" data-link-type="composition" id="lnk19"><polygon fill="#476050" points="478.2067,1873.4766,470.3092,1880.4207,473.6816,1890.3815,481.5791,1883.4374,478.2067,1873.4766" style="stroke:#476050;stroke-width:1.4583;"/><path d="M473.6816,1890.3815 C466.0521,1918.8842 462.9683,1930.4051 455.6775,1957.6423" fill="none" style="stroke:#476050;stroke-width:1.4583;"/><text fill="#000000" font-family="sans-serif" font-size="21.875" lengthAdjust="spacing" textLength="96.0556" x="473.9583" y="1925.2635">contractId</text><text fill="#000000" font-family="sans-serif" font-size="21.875" lengthAdjust="spacing" textLength="32.8339" x="422.1358" y="1952.6421">0..*</text><text fill="#000000" font-family="sans-serif" font-size="21.875" lengthAdjust="spacing" textLength="12.1658" x="465.0817" y="1897.6431">1</text></g><g class="legend" data-source-line="113"><rect fill="none" height="65.944" rx="10.9375" ry="10.9375" style="stroke:#000000;stroke-width:1.4583;" width="575.0348" x="137.2222" y="2366.3053"/><text fill="#000000" font-family="sans-serif" font-size="20.4167" lengthAdjust="spacing" textLength="560.4515" x="144.5139" y="2394.7913">- Private attribute | + Public operation | Diamond: owned entity</text><text fill="#000000" font-family="sans-serif" font-size="20.4167" lengthAdjust="spacing" textLength="399.4708" x="144.5139" y="2420.4716">References to other modules use identifiers.</text></g><?plantuml-src bLRVRzis47xNNt7BNj86DXAWNG5Z2A3Awk3DSGqxAxQdWIPFDXUAr2ZAdhVsV-zHjYHQTXla8OXql--xxyxweR1idJDGR6yg1sMEZcaMbKzI5yoo75QCFwsjgRH8Z38MTXlfCD0Bp5Ybt0UZtOpb24kcooLQcLssMSh_4ExU1ifomuJPIRs6ZAao3CqLAylOEIjNbSC9DxhslWrCOclDxb3OZs_U_NJxDbIAGiBTczl8IQSGOgKAvl09FaFY0sC90rWYAus6X2gpZ3kg8dAc06TWPPmp54DQ9BdHKLqDpAqfJCaK_1_1G8eHJ0tvmA1Gnaswrnmjtp0TYZ9cIHe8BFvJOUbGV3Agod44x-LwZ5pcJFc0TI8KSojvNyShQr7p_GYM14uTJA2IMxJxCRNeCt2c_2Df7Dgy32pntu9w8bn7CD4bJTkHaFwxYgoQzfRrEoa6qKrPhNBfhb-DO6kaY6uuaO62Nfy4RhMCSom2wqEwzltB4SS5bcYtp2Fx39J5iQJle_lThe9aOMCReqJObiwapJk1HKNim6TRQSZpyZviLzSBkKETMNS-QzJY0W6COohE_TIUvr6VBKqnSJrM5AS07-gwh6l0R-1faHU64zsr-mrF27oKBkdlDD2W9HMjjTitA0ICSv90n72KUQ7GdO_gGIhQEAEnFoj-B3A4sA-dzhit8RglqP9CCx-dRStSqYsqaWKYTWdd1ehMok9MugwFs44wCoxCSM41MK5SscB8rB_fI5tR-fZrD_9BXBhAUvjD_S_JsNWo-oLAFlu-UqmNwJYAaoITFzB38lqrJVn3-iTyuZN766Txr8NvQnx_-P3E7YdSxCDayL17cQRnyZpAAI6248VyyIn9pwB6oUFaKqh17-RJr5UMUBFfj8xQtkJXyBxVvmWgklHHU6wyrNadHyDscRrLhzAZYVJNBsCSM_q2AQLqnkuzhsuogSLxukcrxAZwiV2vcFgvyRadmvBH58dlqksxFNdLFL9l5rA4NL9Dn6Uw8y2q08iqUTm6RVJSGXXUvjdYyWstjg2hkoiYxJrStGw7hwzw6RiRUDc17eD4WNKOvjiE9_Uq6wLtU3qOD2LrHs04tTv7YdQSMZhyxaS3WhY-Ai2Q3n3wSBY1URLIaeCfq1wg-GnZIKklQTHcfr70OPvKSOR-k19Iz3LXt0Ojv4PKbDlJ2AJmXfb4MmvfByGX_LS0?></g></svg>