<?plantuml 1.2026.2?><svg xmlns="http://www.w3.org/2000/svg" xmlns:xlink="http://www.w3.org/1999/xlink" contentStyleType="text/css" data-diagram-type="CLASS" height="1507.9167px" preserveAspectRatio="none" style="width:770px;height:1507px;background:#FFFFFF;" version="1.1" viewBox="0 0 770 1507" width="770px" zoomAndPan="magnify"><title>Allpatek | Classes - Payments and Plans</title><defs/><g><g class="title" data-source-line="9"><text fill="#000000" font-family="sans-serif" font-size="20.4167" font-weight="bold" lengthAdjust="spacing" textLength="390.389" x="183.9722" y="35.7776">Allpatek | Classes - Payments and Plans</text></g><!--class Payment--><g class="entity" data-qualified-name="Payment" data-source-line="11" id="ent0002"><rect fill="#F1F1F1" height="400.1758" rx="3.6458" ry="3.6458" style="stroke:#181818;stroke-width:0.7292;" width="330.5539" x="303.3333" y="767.972"/><ellipse cx="419.2498" cy="791.3053" fill="#ADD1B2" rx="16.0417" ry="16.0417" style="stroke:#181818;stroke-width:1.4583;"/><path d="M423.0552,785.472 Q423.2602,785.1986 423.4881,785.0618 Q423.7388,784.9251 424.0122,784.9251 Q424.4907,784.9251 424.7869,785.2669 Q425.1059,785.5859 425.1059,786.3835 L425.1059,788.2292 Q425.1059,789.0267 424.7869,789.3685 Q424.4907,789.6875 424.0122,789.6875 Q423.5793,789.6875 423.3058,789.4596 Q423.0324,789.209 422.9184,788.5254 Q422.8273,788.0924 422.6222,787.8418 Q422.1665,787.3633 421.369,787.0671 Q420.5942,786.7708 419.8195,786.7708 Q418.8397,786.7708 417.9966,787.2038 Q417.1763,787.6367 416.5382,788.5938 Q415.923,789.5508 415.923,790.8724 L415.923,792.3079 Q415.923,793.8802 417.0623,794.9512 Q418.2244,795.9993 420.2524,795.9993 Q421.4829,795.9993 422.326,795.6576 Q422.8045,795.4753 423.3742,794.9056 Q423.716,794.5638 423.8983,794.4727 Q424.1033,794.3587 424.3312,794.3587 Q424.7869,794.3587 425.1059,794.7005 Q425.4477,795.0195 425.4477,795.4753 Q425.4477,795.931 424.992,796.4323 Q424.3312,797.1842 423.3058,797.6172 Q421.9386,798.1868 420.2752,798.1868 Q418.3384,798.1868 416.7661,797.3893 Q415.5128,796.7513 414.6242,795.3613 Q413.7355,793.9714 413.7355,792.3535 L413.7355,790.8496 Q413.7355,789.1406 414.533,787.6823 Q415.3306,786.2012 416.7433,785.4036 Q418.1561,784.5833 419.7283,784.5833 Q420.6854,784.5833 421.5057,784.8112 Q422.326,785.0391 423.0552,785.472 Z " fill="#000000"/><text fill="#000000" font-family="sans-serif" font-size="21.875" lengthAdjust="spacing" textLength="86.3251" x="449.1457" y="800.2561">Payment</text><line style="stroke:#181818;stroke-width:0.7292;" x1="304.7917" x2="632.4289" y1="814.6387" y2="814.6387"/><text fill="#000000" font-family="sans-serif" font-size="21.875" lengthAdjust="spacing" textLength="85.1288" x="312.0833" y="843.1801">-id: Long</text><text fill="#000000" font-family="sans-serif" font-size="21.875" lengthAdjust="spacing" textLength="164.1586" x="312.0833" y="870.6948">-contractId: Long</text><text fill="#000000" font-family="sans-serif" font-size="21.875" lengthAdjust="spacing" textLength="179.9667" x="312.0833" y="898.2094">-milestoneId: Long</text><text fill="#000000" font-family="sans-serif" font-size="21.875" lengthAdjust="spacing" textLength="203.0701" x="312.0833" y="925.7241">-subscriptionId: Long</text><text fill="#000000" font-family="sans-serif" font-size="21.875" lengthAdjust="spacing" textLength="189.6759" x="312.0833" y="953.2387">-kind: PaymentKind</text><text fill="#000000" font-family="sans-serif" font-size="21.875" lengthAdjust="spacing" textLength="203.0273" x="312.0833" y="980.7534">-amount: BigDecimal</text><text fill="#000000" font-family="sans-serif" font-size="21.875" lengthAdjust="spacing" textLength="160.463" x="312.0833" y="1008.268">-currency: String</text><text fill="#000000" font-family="sans-serif" font-size="21.875" lengthAdjust="spacing" textLength="256.5399" x="312.0833" y="1035.7827">-providerReference: String</text><text fill="#000000" font-family="sans-serif" font-size="21.875" lengthAdjust="spacing" textLength="134.9457" x="312.0833" y="1063.2973">-status: String</text><text fill="#000000" font-family="sans-serif" font-size="21.875" lengthAdjust="spacing" textLength="178.7384" x="312.0833" y="1090.812">-createdAt: Instant</text><line style="stroke:#181818;stroke-width:1.4583;" x1="304.7917" x2="632.4289" y1="1101.4518" y2="1101.4518"/><text fill="#000000" font-family="sans-serif" font-size="21.875" lengthAdjust="spacing" textLength="313.0539" x="312.0833" y="1129.9933">+confirm(reference: String): void</text><text fill="#000000" font-family="sans-serif" font-size="21.875" lengthAdjust="spacing" textLength="187.8174" x="312.0833" y="1157.5079">+markFailed(): void</text></g><!--class SubscriptionPlan--><g class="entity" data-qualified-name="SubscriptionPlan" data-source-line="26" id="ent0003"><rect fill="#F1F1F1" height="235.0879" rx="3.6458" ry="3.6458" style="stroke:#181818;stroke-width:0.7292;" width="409.6158" x="8.75" y="73.8053"/><ellipse cx="125.2807" cy="97.1387" fill="#ADD1B2" rx="16.0417" ry="16.0417" style="stroke:#181818;stroke-width:1.4583;"/><path d="M129.086,91.3053 Q129.2911,91.0319 129.5189,90.8952 Q129.7696,90.7585 130.043,90.7585 Q130.5215,90.7585 130.8178,91.1003 Q131.1368,91.4193 131.1368,92.2168 L131.1368,94.0625 Q131.1368,94.86 130.8178,95.2018 Q130.5215,95.5208 130.043,95.5208 Q129.6101,95.5208 129.3366,95.293 Q129.0632,95.0423 128.9493,94.3587 Q128.8581,93.9258 128.6531,93.6751 Q128.1973,93.1966 127.3998,92.9004 Q126.6251,92.6042 125.8503,92.6042 Q124.8705,92.6042 124.0274,93.0371 Q123.2071,93.4701 122.5691,94.4271 Q121.9538,95.3841 121.9538,96.7057 L121.9538,98.1413 Q121.9538,99.7135 123.0932,100.7845 Q124.2553,101.8327 126.2833,101.8327 Q127.5137,101.8327 128.3568,101.4909 Q128.8353,101.3086 129.405,100.7389 Q129.7468,100.3971 129.9291,100.306 Q130.1342,100.1921 130.362,100.1921 Q130.8178,100.1921 131.1368,100.5339 Q131.4786,100.8529 131.4786,101.3086 Q131.4786,101.7643 131.0228,102.2656 Q130.362,103.0176 129.3366,103.4505 Q127.9695,104.0202 126.3061,104.0202 Q124.3692,104.0202 122.7969,103.2227 Q121.5437,102.5846 120.655,101.1947 Q119.7663,99.8047 119.7663,98.1868 L119.7663,96.6829 Q119.7663,94.974 120.5639,93.5156 Q121.3614,92.0345 122.7741,91.237 Q124.1869,90.4167 125.7592,90.4167 Q126.7162,90.4167 127.5365,90.6445 Q128.3568,90.8724 129.086,91.3053 Z " fill="#000000"/><text fill="#000000" font-family="sans-serif" font-size="21.875" lengthAdjust="spacing" textLength="164.1586" x="155.1765" y="106.0895">SubscriptionPlan</text><line style="stroke:#181818;stroke-width:0.7292;" x1="10.2083" x2="416.9075" y1="120.472" y2="120.472"/><text fill="#000000" font-family="sans-serif" font-size="21.875" lengthAdjust="spacing" textLength="85.1288" x="17.5" y="149.0135">-id: Long</text><text fill="#000000" font-family="sans-serif" font-size="21.875" lengthAdjust="spacing" textLength="131.3034" x="17.5" y="176.5281">-name: String</text><text fill="#000000" font-family="sans-serif" font-size="21.875" lengthAdjust="spacing" textLength="256.4972" x="17.5" y="204.0428">-monthlyPrice: BigDecimal</text><text fill="#000000" font-family="sans-serif" font-size="21.875" lengthAdjust="spacing" textLength="160.463" x="17.5" y="231.5574">-currency: String</text><text fill="#000000" font-family="sans-serif" font-size="21.875" lengthAdjust="spacing" textLength="168.9972" x="17.5" y="259.0721">-plotLimit: Integer</text><line style="stroke:#181818;stroke-width:1.4583;" x1="10.2083" x2="416.9075" y1="269.7119" y2="269.7119"/><text fill="#000000" font-family="sans-serif" font-size="21.875" lengthAdjust="spacing" textLength="392.1158" x="17.5" y="298.2534">+updatePrice(amount: BigDecimal): void</text></g><!--class Subscription--><g class="entity" data-qualified-name="Subscription" data-source-line="35" id="ent0004"><rect fill="#F1F1F1" height="290.1172" rx="3.6458" ry="3.6458" style="stroke:#181818;stroke-width:0.7292;" width="224.191" x="101.3542" y="393.1803"/><ellipse cx="148.9456" cy="416.5137" fill="#ADD1B2" rx="16.0417" ry="16.0417" style="stroke:#181818;stroke-width:1.4583;"/><path d="M152.751,410.6803 Q152.9561,410.4069 153.1839,410.2702 Q153.4346,410.1335 153.708,410.1335 Q154.1865,410.1335 154.4828,410.4753 Q154.8018,410.7943 154.8018,411.5918 L154.8018,413.4375 Q154.8018,414.235 154.4828,414.5768 Q154.1865,414.8958 153.708,414.8958 Q153.2751,414.8958 153.0016,414.668 Q152.7282,414.4173 152.6143,413.7337 Q152.5231,413.3008 152.318,413.0501 Q151.8623,412.5716 151.0648,412.2754 Q150.29,411.9792 149.5153,411.9792 Q148.5355,411.9792 147.6924,412.4121 Q146.8721,412.8451 146.2341,413.8021 Q145.6188,414.7591 145.6188,416.0807 L145.6188,417.5163 Q145.6188,419.0885 146.7581,420.1595 Q147.9203,421.2077 149.9482,421.2077 Q151.1787,421.2077 152.0218,420.8659 Q152.5003,420.6836 153.07,420.1139 Q153.4118,419.7721 153.5941,419.681 Q153.7992,419.5671 154.027,419.5671 Q154.4828,419.5671 154.8018,419.9089 Q155.1436,420.2279 155.1436,420.6836 Q155.1436,421.1393 154.6878,421.6406 Q154.027,422.3926 153.0016,422.8255 Q151.6344,423.3952 149.971,423.3952 Q148.0342,423.3952 146.4619,422.5977 Q145.2087,421.9596 144.32,420.5697 Q143.4313,419.1797 143.4313,417.5618 L143.4313,416.0579 Q143.4313,414.349 144.2288,412.8906 Q145.0264,411.4095 146.4391,410.612 Q147.8519,409.7917 149.4242,409.7917 Q150.3812,409.7917 151.2015,410.0195 Q152.0218,410.2474 152.751,410.6803 Z " fill="#000000"/><text fill="#000000" font-family="sans-serif" font-size="21.875" lengthAdjust="spacing" textLength="120.3766" x="175.0771" y="425.4645">Subscription</text><line style="stroke:#181818;stroke-width:0.7292;" x1="102.8125" x2="324.0868" y1="439.847" y2="439.847"/><text fill="#000000" font-family="sans-serif" font-size="21.875" lengthAdjust="spacing" textLength="85.1288" x="110.1042" y="468.3885">-id: Long</text><text fill="#000000" font-family="sans-serif" font-size="21.875" lengthAdjust="spacing" textLength="128.9001" x="110.1042" y="495.9031">-userId: Long</text><text fill="#000000" font-family="sans-serif" font-size="21.875" lengthAdjust="spacing" textLength="127.7039" x="110.1042" y="523.4178">-planId: Long</text><text fill="#000000" font-family="sans-serif" font-size="21.875" lengthAdjust="spacing" textLength="206.691" x="110.1042" y="550.9324">-startDate: LocalDate</text><text fill="#000000" font-family="sans-serif" font-size="21.875" lengthAdjust="spacing" textLength="200.6454" x="110.1042" y="578.4471">-endDate: LocalDate</text><text fill="#000000" font-family="sans-serif" font-size="21.875" lengthAdjust="spacing" textLength="134.9457" x="110.1042" y="605.9617">-status: String</text><line style="stroke:#181818;stroke-width:1.4583;" x1="102.8125" x2="324.0868" y1="616.6016" y2="616.6016"/><text fill="#000000" font-family="sans-serif" font-size="21.875" lengthAdjust="spacing" textLength="155.0156" x="110.1042" y="645.143">+activate(): void</text><text fill="#000000" font-family="sans-serif" font-size="21.875" lengthAdjust="spacing" textLength="142.8604" x="110.1042" y="672.6577">+cancel(): void</text></g><!--class PaymentKind--><g class="entity" data-qualified-name="PaymentKind" data-source-line="46" id="ent0005"><rect fill="#F1F1F1" height="152.5439" rx="3.6458" ry="3.6458" style="stroke:#181818;stroke-width:0.7292;" width="256.9928" x="340.5208" y="1252.1387"/><ellipse cx="398.4944" cy="1275.472" fill="#EB937F" rx="16.0417" ry="16.0417" style="stroke:#181818;stroke-width:1.4583;"/><path d="M397.6969,1275.9049 L397.6969,1279.1178 L403.3023,1279.1178 L403.3023,1277.9329 Q403.3023,1277.1354 403.5986,1276.8164 Q403.8948,1276.4746 404.3961,1276.4746 Q404.8746,1276.4746 405.1708,1276.8164 Q405.4898,1277.1354 405.4898,1277.9329 L405.4898,1281.3053 L395.1676,1281.3053 Q394.3928,1281.3053 394.051,1281.0091 Q393.7092,1280.6901 393.7092,1280.2116 Q393.7092,1279.7331 394.051,1279.4368 Q394.3928,1279.1178 395.1676,1279.1178 L395.5094,1279.1178 L395.5094,1270.5501 L395.1676,1270.5501 Q394.3928,1270.5501 394.051,1270.2539 Q393.7092,1269.9349 393.7092,1269.4564 Q393.7092,1268.9551 394.051,1268.6589 Q394.3928,1268.3398 395.1676,1268.3398 L405.0113,1268.3626 L405.0113,1271.6895 Q405.0113,1272.4642 404.6923,1272.806 Q404.3961,1273.1478 403.9176,1273.1478 Q403.4163,1273.1478 403.0973,1272.8288 Q402.801,1272.487 402.801,1271.6895 L402.801,1270.5501 L397.6969,1270.5501 L397.6969,1273.7174 L399.6337,1273.7174 Q399.6337,1272.8516 399.7932,1272.6009 Q400.1122,1272.0768 400.7275,1272.0768 Q401.206,1272.0768 401.5022,1272.4186 Q401.8212,1272.7604 401.8212,1273.5579 L401.8212,1276.0645 Q401.8212,1276.7936 401.6389,1277.0215 Q401.2971,1277.5456 400.7275,1277.5456 Q400.1122,1277.5456 399.7932,1277.0215 Q399.6337,1276.7708 399.6337,1275.9049 L397.6969,1275.9049 Z " fill="#000000"/><text fill="#000000" font-family="sans-serif" font-size="21.875" lengthAdjust="spacing" textLength="130.1071" x="426.933" y="1284.4228">PaymentKind</text><line style="stroke:#181818;stroke-width:0.7292;" x1="341.9792" x2="596.0553" y1="1298.8053" y2="1298.8053"/><text fill="#000000" font-family="sans-serif" font-size="21.875" lengthAdjust="spacing" textLength="202.9846" x="349.2708" y="1327.3468">SEASON_FUNDING</text><text fill="#000000" font-family="sans-serif" font-size="21.875" lengthAdjust="spacing" textLength="239.4928" x="349.2708" y="1354.8615">MILESTONE_RELEASE</text><text fill="#000000" font-family="sans-serif" font-size="21.875" lengthAdjust="spacing" textLength="164.0839" x="349.2708" y="1382.3761">SUBSCRIPTION</text><line style="stroke:#181818;stroke-width:0.7292;" x1="341.9792" x2="596.0553" y1="1393.016" y2="1393.016"/></g><!--class PaymentRepository--><g class="entity" data-qualified-name="PaymentRepository" data-source-line="52" id="ent0007"><rect fill="#F1F1F1" height="125.0293" rx="3.6458" ry="3.6458" style="stroke:#181818;stroke-width:0.7292;" width="407.2339" x="352.9167" y="475.5762"/><ellipse cx="454.8943" cy="498.9095" fill="#B4A7E5" rx="16.0417" ry="16.0417" style="stroke:#181818;stroke-width:1.4583;"/><path d="M456.7172,493.9876 L456.7172,502.5553 L458.9275,502.5553 Q459.725,502.5553 460.044,502.8743 Q460.3858,503.1706 460.3858,503.6491 Q460.3858,504.1276 460.044,504.4466 Q459.725,504.7428 458.9275,504.7428 L452.3194,504.7428 Q451.5219,504.7428 451.1801,504.4466 Q450.8611,504.1276 450.8611,503.6491 Q450.8611,503.1706 451.1801,502.8743 Q451.5219,502.5553 452.3194,502.5553 L454.5297,502.5553 L454.5297,493.9876 L452.3194,493.9876 Q451.5219,493.9876 451.1801,493.6914 Q450.8611,493.3724 450.8611,492.8939 Q450.8611,492.3926 451.1801,492.0964 Q451.5219,491.7773 452.3194,491.7773 L458.9275,491.8001 Q459.725,491.8001 460.044,492.0964 Q460.3858,492.3926 460.3858,492.8939 Q460.3858,493.3724 460.044,493.6914 Q459.725,493.9876 458.9275,493.9876 L456.7172,493.9876 Z " fill="#000000"/><text fill="#000000" font-family="sans-serif" font-size="21.875" font-style="italic" lengthAdjust="spacing" textLength="190.8829" x="484.7901" y="507.8603">PaymentRepository</text><line style="stroke:#181818;stroke-width:0.7292;" x1="354.375" x2="758.6922" y1="522.2428" y2="522.2428"/><line style="stroke:#181818;stroke-width:0.7292;" x1="354.375" x2="758.6922" y1="533.9095" y2="533.9095"/><text fill="#000000" font-family="sans-serif" font-size="21.875" lengthAdjust="spacing" textLength="389.7339" x="361.6667" y="562.451">+findById(id: Long): Optional&lt;Payment&gt;</text><text fill="#000000" font-family="sans-serif" font-size="21.875" lengthAdjust="spacing" textLength="322.7951" x="361.6667" y="589.9656">+save(entity: Payment): Payment</text></g><g class="link" data-entity-1="ent0002" data-entity-2="ent0005" data-link-type="dependency" id="lnk6"><polygon fill="#476050" points="468.8542,1251.9973,474.6875,1238.8723,468.8542,1244.7056,463.0208,1238.8723,468.8542,1251.9973" style="stroke:#476050;stroke-width:1.4583;"/><path d="M468.8542,1167.6031 C468.8542,1197.6114 468.8542,1218.1349 468.8542,1243.2473" fill="none" style="stroke:#476050;stroke-width:1.4583;stroke-dasharray:10.2083,10.2083;"/><text fill="#000000" font-family="sans-serif" font-size="21.875" lengthAdjust="spacing" textLength="46.2067" x="471.7708" y="1219.4301">uses</text></g><g class="link" data-entity-1="ent0007" data-entity-2="ent0002" data-link-type="dependency" id="lnk8"><polygon fill="#476050" points="509.581,767.7622,517.9327,756.0771,511.0462,760.6193,506.504,753.7328,509.581,767.7622" style="stroke:#476050;stroke-width:1.4583;"/><path d="M543.7244,601.3131 C534.6849,645.3805 523.7288,698.7917 511.3392,759.1907" fill="none" style="stroke:#476050;stroke-width:1.4583;stroke-dasharray:10.2083,10.2083;"/><text fill="#000000" font-family="sans-serif" font-size="21.875" lengthAdjust="spacing" textLength="192.1005" x="524.2708" y="735.2635">stores and retrieves</text></g><g class="link" data-entity-1="ent0004" data-entity-2="ent0002" data-link-type="dependency" id="lnk9"><polygon fill="#476050" points="299.6919,683.5628,301.4247,697.8208,303.4356,689.82,311.4363,691.8309,299.6919,683.5628" style="stroke:#476050;stroke-width:1.4583;"/><path d="M304.1843,691.0715 C320.3915,718.1605 333.1103,739.4191 350.1107,767.8341" fill="none" style="stroke:#476050;stroke-width:1.4583;"/><text fill="#000000" font-family="sans-serif" font-size="21.875" lengthAdjust="spacing" textLength="134.967" x="337.6042" y="735.2635">subscriptionId</text><text fill="#000000" font-family="sans-serif" font-size="21.875" lengthAdjust="spacing" textLength="32.8339" x="316.569" y="762.8339">0..*</text><text fill="#000000" font-family="sans-serif" font-size="21.875" lengthAdjust="spacing" textLength="36.4868" x="261.7753" y="707.7292">0..1</text></g><g class="link" data-entity-1="ent0003" data-entity-2="ent0004" data-link-type="dependency" id="lnk10"><polygon fill="#476050" points="213.6458,308.6988,207.8125,321.8238,213.6458,315.9905,219.4792,321.8238,213.6458,308.6988" style="stroke:#476050;stroke-width:1.4583;"/><path d="M213.6458,317.4488 C213.6458,344.3791 213.6458,364.6151 213.6458,392.5922" fill="none" style="stroke:#476050;stroke-width:1.4583;"/><text fill="#000000" font-family="sans-serif" font-size="21.875" lengthAdjust="spacing" textLength="59.6008" x="216.5625" y="360.4718">planId</text><text fill="#000000" font-family="sans-serif" font-size="21.875" lengthAdjust="spacing" textLength="32.8339" x="180.1042" y="387.592">0..*</text><text fill="#000000" font-family="sans-serif" font-size="21.875" lengthAdjust="spacing" textLength="12.1658" x="200.5208" y="332.8653">1</text></g><g class="legend" data-source-line="59"><rect fill="none" height="65.944" rx="10.9375" ry="10.9375" style="stroke:#000000;stroke-width:1.4583;" width="575.0348" x="91.6493" y="1414.0137"/><text fill="#000000" font-family="sans-serif" font-size="20.4167" lengthAdjust="spacing" textLength="560.4515" x="98.9409" y="1442.4996">- Private attribute | + Public operation | Diamond: owned entity</text><text fill="#000000" font-family="sans-serif" font-size="20.4167" lengthAdjust="spacing" textLength="399.4708" x="98.9409" y="1468.1799">References to other modules use identifiers.</text></g><?plantuml-src XLHHRnen37w_N-6n5pe4ebAtIQYgH0kTJki0SUrpPUvy495BJauEnDRzz_cEGaEPjhV4ZZz__cpdGycuB10qxcpbmHNaqM3arigKo5Z00jFracrbiZkhBSDsfJm5_enohBI_jyPFi218qBY4MEL_VvEedmINdmEdMs5cjyei8KVjGkXKetD3xrajAaznQaqJtG-U39djTa_iuzNNB_tFeJCh5LnUzIEll2OOQbsYfpMym5qDJ0wwCCDTGSOxG9F1J0ltoDiIl8M5zTuAXc9AlR8cQjWS0k1N15sL3U31cgKSXPjdJ7tyPYgK9kUjeS3cgeLBMPKrO60Mnd9vXVuk5x5X8Phx0TogvOXILQ2kqrJCPDBT019HfOajsMvKHZodd6eV1JxdqLSkCAHC8a4s5DpOYDTuCNQZZj3F5HTjVWzoCO2DLLdKAP3NzoWbPUs3xVUh94bGL2tXUssCZ4N0eH2fLdetOrMd-Mzvsle7LQY6iQSbyPvnLMPIIGFIFfVgNnJVqwiSST2BKYe8E-QH_KXIrPOKTNqKCvdit7Wcj_2KcL0RSHzLwwGe-kf0HJ9L4JPV22RZOJATFDy_JKRnv5lq8tuO9u_JoVXvFduGrpXAdcwJktayUuod4u4uJ6MlTtE2D02fpaLAbECSKpeuvrHQfxpbNQr69vUtjxiuQnza4NBJHYpKrwyXD_BEuORQSbP-TnpNY-FfZKS07p0IDh8FJFjbOnALQ2FiJfhJwlTwbosuxdQRuwTM67soFT7PtBLE0qzm1x1lRAHbXYJzVhqZ-G6uwG_WuP-H_w43isgXLGgs9COc_WL6IkQitbExDPJ1NeRek7Qk_ZIiNn53ORDATh_M7cGrvM6kY5rFEftjq_y1?></g></svg>